<svg id="Layer_1" data-name="Layer 1" xmlns="http://www.w3.org/2000/svg" viewBox="0 0 720.5 720.5"><defs><style>.cls-1{fill:#fff;}.cls-1,.cls-2,.cls-3,.cls-4,.cls-5{stroke:#fff;stroke-miterlimit:10;stroke-width:0.5px;}.cls-2{fill:none;}.cls-10,.cls-3{fill:#00a2a0;}.cls-4{fill:#ffad59;}.cls-5,.cls-9{fill:#ed4037;}.cls-6{font-size:97.49px;fill:#fbb03b;font-family:Baloo-Regular, Baloo;}.cls-7{letter-spacing:0em;}.cls-8{letter-spacing:-0.02em;}.cls-10{font-size:62.03px;}.cls-11{letter-spacing:-0.01em;}.cls-12{letter-spacing:-0.02em;}</style></defs><rect class="cls-1" x="0.25" y="0.25" width="720" height="720"/><ellipse class="cls-2" cx="135.66" cy="316.03" rx="4.62" ry="4.57"/><path class="cls-2" d="M127.3,288a4.57,4.57,0,1,0,4.62,4.57A4.59,4.59,0,0,0,127.3,288Z" transform="translate(0.25 0.25)"/><ellipse class="cls-2" cx="142.6" cy="338.6" rx="4.62" ry="4.57"/><path class="cls-3" d="M119,381.34l.14.15h0l-.15-.14Z" transform="translate(0.25 0.25)"/><polygon class="cls-3" points="52.01 312.61 118.91 381.25 66.78 292.91 52.01 312.61"/><path class="cls-4" d="M118.47,380.44,84.71,271.61a2.36,2.36,0,0,1-.1-.53L63.68,287.84l2.85,4.82L118.66,381l.26.44.08-.1h0A2.39,2.39,0,0,1,118.47,380.44Z" transform="translate(0.25 0.25)"/><path class="cls-5" d="M186.11,360.76l-34.2-110.17a2.41,2.41,0,0,0-3-1.56l-16,5a2.29,2.29,0,0,0-1.61,2.73c5.3,18.84-19.76,25.36-26.38,8a2.26,2.26,0,0,0-2.8-1.09l-15.87,5a2.34,2.34,0,0,0-1.56,2.94l33.76,108.83a2.39,2.39,0,0,0,.53.9l.15.14a2.38,2.38,0,0,0,2.24.55l16.41-4.47a2.31,2.31,0,0,0,1.73-2.51c-2.91-19.34,19.45-25,26.49-7.88a2.27,2.27,0,0,0,2.74,1.11l15.73-4.56A2.36,2.36,0,0,0,186.11,360.76ZM127.3,297.12a4.57,4.57,0,1,1,4.62-4.57A4.59,4.59,0,0,1,127.3,297.12Zm3.48,18.66a4.63,4.63,0,1,1,4.63,4.57A4.6,4.6,0,0,1,130.78,315.78Zm11.57,27.14a4.57,4.57,0,1,1,4.63-4.57A4.6,4.6,0,0,1,142.35,342.92Z" transform="translate(0.25 0.25)"/><text class="cls-6" transform="translate(188.44 330.27)"><tspan class="cls-7">T</tspan><tspan x="53.72" y="0">ic</tspan><tspan class="cls-8" x="128.89" y="0">k</tspan><tspan x="180.85" y="0">et</tspan><tspan class="cls-9" x="273.37" y="0">Nest</tspan><tspan class="cls-10"><tspan class="cls-11" x="347.69" y="44.11">.</tspan><tspan class="cls-12" x="361.83" y="44.11">c</tspan><tspan x="391.23" y="44.11">om</tspan></tspan></text></svg>